<svg viewBox="0 0 420 420" xmlns="http://www.w3.org/2000/svg">
<rect width="420" height="420" fill="#0f1117" rx="16"/>
<g transform="rotate(0.00 210 210) translate(0 -0.00) scale(1.0000)">
  <ellipse cx="210" cy="212" rx="150" ry="172" fill="#e8b48c" stroke="#d79f77" stroke-width="2"/>
  <ellipse cx="150" cy="250" rx="34" ry="22" fill="#f0c6a4" opacity="0.000"/>
  <ellipse cx="270" cy="250" rx="34" ry="22" fill="#f0c6a4" opacity="0.000"/>
  <ellipse cx="150" cy="182" rx="34" ry="24" fill="#fff"/>
  <ellipse cx="270" cy="182" rx="34" ry="24" fill="#fff"/>
  <circle cx="150.0" cy="182.0" r="12" fill="#2a2f3a"/><circle cx="270.0" cy="182.0" r="12" fill="#2a2f3a"/>
  <path fill="#e8b48c" d="M 114 124 L 186 124 L 186 158.0 Q 150 167.0 114 158.0 Z"/><path fill="#e8b48c" d="M 234 124 L 306 124 L 306 158.0 Q 270 167.0 234 158.0 Z"/>
  <path fill="#e8b48c" d="M 114 240 L 186 240 L 186 206.0 Q 150 199.0 114 206.0 Z"/><path fill="#e8b48c" d="M 234 240 L 306 240 L 306 206.0 Q 270 199.0 234 206.0 Z"/>
  <ellipse cx="150" cy="182" rx="34" ry="24" fill="none" stroke="#d79f77" stroke-width="2"/>
  <ellipse cx="270" cy="182" rx="34" ry="24" fill="none" stroke="#d79f77" stroke-width="2"/>
  <path stroke="#5b3b28" stroke-width="8" stroke-linecap="round" fill="none" d="M 116 140.0 Q 151.0 133.0 186.0 140.0"/>
  <path stroke="#5b3b28" stroke-width="8" stroke-linecap="round" fill="none" d="M 304 140.0 Q 269.0 133.0 234.0 140.0"/>
  <path d="M210 196 q-10 40 -16 52 q8 8 22 0" fill="none" stroke="#d79f77" stroke-width="2"/>
  <path fill="#b5473f" stroke="#8f3630" stroke-width="2" d="M 164 302.0 Q 210 302.0 256 302.0 Q 210 305.0 164 302.0 Z"/>
</g><text x="210" y="404" text-anchor="middle" fill="#8a92a6" font-family="sans-serif" font-size="18">neutral</text>
</svg>